<?xml version="1.0" standalone="no"?>
<!DOCTYPE svg PUBLIC "-//W3C//DTD SVG 20010904//EN"
 "http://www.w3.org/TR/2001/REC-SVG-20010904/DTD/svg10.dtd">
<svg version="1.0" xmlns="http://www.w3.org/2000/svg"
 width="225.000000pt" height="224.000000pt" viewBox="0 0 225.000000 224.000000"
 preserveAspectRatio="xMidYMid meet">
<metadata>
Created by potrace 1.16, written by Peter Selinger 2001-2019
</metadata>
<g transform="translate(0.000000,224.000000) scale(0.100000,-0.100000)"
fill="#000000" stroke="none">
<path d="M695 1494 c-185 -46 -305 -210 -293 -398 9 -139 95 -263 223 -323 54
-25 71 -28 165 -28 93 0 112 3 162 27 71 33 137 93 171 155 l26 48 -75 26 -75
26 -14 -27 c-20 -38 -77 -86 -121 -100 -56 -19 -147 -7 -195 24 -64 43 -93 97
-97 181 -8 146 80 245 218 245 86 0 157 -42 199 -118 9 -15 15 -15 80 6 39 13
71 29 71 36 0 21 -55 100 -95 135 -68 59 -138 85 -240 87 -49 2 -99 1 -110 -2z"/>
<path d="M1145 1458 c8 -18 78 -187 154 -375 l140 -342 -114 -277 c-63 -152
-119 -282 -125 -289 -17 -20 -68 -25 -161 -16 -231 25 -425 113 -590 268 -36
34 -70 59 -74 55 -5 -4 -5 -1 -1 5 4 7 -10 34 -34 65 -23 28 -53 74 -66 101
-14 27 -28 46 -31 43 -3 -3 0 -12 6 -20 7 -8 9 -21 5 -27 -4 -7 -3 -9 3 -6 5
3 17 -10 26 -29 19 -40 21 -48 8 -39 -5 3 -12 1 -16 -4 -3 -6 4 -8 16 -6 19 4
21 1 16 -24 -4 -20 -1 -33 10 -43 12 -9 15 -9 9 -1 -4 7 -3 20 2 29 6 11 11
13 16 5 4 -6 2 -11 -3 -11 -6 0 -11 -5 -11 -11 0 -8 6 -7 18 2 15 12 16 12 5
-2 -7 -9 -11 -19 -8 -22 3 -4 2 -5 -2 -2 -3 3 -15 -3 -26 -12 -11 -10 -18 -13
-14 -7 4 7 -5 11 -26 11 l-32 1 28 -10 c28 -10 33 -23 17 -48 -8 -12 -15 -9
-41 20 l-31 35 27 -40 c108 -156 335 -314 545 -380 163 -51 357 -68 442 -40
87 30 84 25 393 773 157 382 285 695 285 698 0 2 -37 4 -82 4 l-83 -1 -100
-255 c-55 -141 -105 -263 -110 -271 -8 -11 -37 50 -119 256 l-108 271 -89 0
-89 0 15 -32z"/>
</g>
</svg>
